<svg version="1.0" xmlns="http://www.w3.org/2000/svg" width="1149.333" height="1706.667" viewBox="0 0 862 1280"><path d="M410.5.6c-70.4 3.9-132 19.2-188.2 46.8C148.2 83.8 88.2 137.2 50 200.6 17.1 255.1 0 310.6 0 363c0 34.1 14.4 65.2 42.6 92 27.2 25.8 62.7 38 101.6 34.9 30.7-2.5 54.8-13.5 75.8-34.8 17.5-17.7 28.5-37.2 40.5-72.1 16-46.1 31.1-77.7 50.5-105.3 9.5-13.4 27.5-31.1 37.4-36.7 24.3-13.6 53.7-20 91.6-20 45.1.1 78.1 11.2 106.4 35.8 28 24.4 42.6 56.1 42.6 92.7 0 25.3-5.3 41.2-22.3 66.5-14.4 21.5-26.8 33.9-92.7 92.5-55.7 49.6-91.5 84.2-111 106.9-34.9 40.8-60.8 94.9-69.5 145-4.7 27.6-6.9 69.5-4.6 89.1 4 34.1 14.6 57.9 34.5 77.8 24.6 24.6 58.7 37.2 96 35.4 48.3-2.3 82.8-24.4 101.6-65.2 5.2-11.1 8.8-23.3 15.5-53 3.2-13.8 7.3-30.6 9.2-37.5 3.6-13.5 11.4-30.8 18.3-40.9 11.8-17.4 33.5-39.9 71.8-74.3 98.3-88.4 133.6-122.1 152.6-145.8 17.8-22.3 38.1-54 48.1-75.4 30-63.8 33.7-147 9.9-219.7-16.1-49.5-42.4-91.9-80.9-130.5-66.7-67-158.1-107-269.5-117.9C481.1 1 425.4-.2 410.5.6zM398 989.5c-34 5.2-60.7 19.1-85.1 44.2-29.3 30.2-42.7 69.3-39 113.5 2 23.8 6 38.8 15.3 57 13.1 25.6 35.3 46.5 64.2 60.4 16.4 7.8 28.2 11.3 47 13.9 30.5 4.2 60.8-.8 87.7-14.3 33.9-17.1 58.4-43.9 70-76.7 11.1-31.7 11.6-70.1 1.2-102-6.8-21-19.6-40.9-36.9-57.5-22.6-21.7-46.8-33.6-78.9-38.6-11-1.7-34-1.6-45.5.1z"/></svg>